<svg xmlns="http://www.w3.org/2000/svg" viewBox="0 0 100 100" width="100" height="100">
  <!-- Two lines above S -->
  <line x1="25" y1="20" x2="75" y2="20" stroke="#f5f5f5" stroke-width="2.5" stroke-linecap="round"/>
  <line x1="25" y1="30" x2="75" y2="30" stroke="#f5f5f5" stroke-width="2.5" stroke-linecap="round"/>
  
  <!-- Letter S - stylized -->
  <path d="M 50 42
           C 35 42, 30 48, 30 55
           C 30 60, 35 63, 40 64
           C 45 65, 50 65, 55 64
           C 60 63, 65 60, 65 55
           C 65 50, 60 48, 55 47
           C 50 46, 45 46, 40 47
           C 35 48, 30 50, 30 55
           C 30 65, 40 70, 50 70
           C 60 70, 70 65, 70 58
           C 70 55, 68 53, 65 52
           C 62 51, 58 51, 55 52
           C 52 53, 50 55, 50 58" 
        fill="none" 
        stroke="#f5f5f5" 
        stroke-width="3.5" 
        stroke-linecap="round" 
        stroke-linejoin="round"/>
</svg>

